<svg width="33" height="33" viewBox="0 0 33 33" fill="none" xmlns="http://www.w3.org/2000/svg">
<path d="M26.9167 12.5H14.9167C13.4439 12.5 12.25 13.6939 12.25 15.1667V27.1667C12.25 28.6394 13.4439 29.8333 14.9167 29.8333H26.9167C28.3894 29.8333 29.5833 28.6394 29.5833 27.1667V15.1667C29.5833 13.6939 28.3894 12.5 26.9167 12.5Z" stroke="#ED272D" stroke-width="2" stroke-linecap="round" stroke-linejoin="round"/>
<path d="M6.9165 20.5003H5.58317C4.87593 20.5003 4.19765 20.2194 3.69755 19.7193C3.19746 19.2192 2.9165 18.5409 2.9165 17.8337V5.83366C2.9165 5.12641 3.19746 4.44814 3.69755 3.94804C4.19765 3.44794 4.87593 3.16699 5.58317 3.16699H17.5832C18.2904 3.16699 18.9687 3.44794 19.4688 3.94804C19.9689 4.44814 20.2498 5.12641 20.2498 5.83366V7.16699" stroke="#ED272D" stroke-width="2" stroke-linecap="round" stroke-linejoin="round"/>
</svg>
