<svg id="Layer_1" height="512" viewBox="0 0 32 32" width="512" xmlns="http://www.w3.org/2000/svg" data-name="Layer 1"><g><path d="m26.60693 16a7.50006 7.50006 0 0 0 -10.60693-10.60645l-.70721.707a1 1 0 0 0 -.00013 1.41431l1.41394 1.41391a1 1 0 0 0 1.41407.00012l.70745-.70721a3.50032 3.50032 0 0 1 4.9502 4.9502l-3.53613 3.53512a3.52193 3.52193 0 0 1 -4.7124.2168l-.7674-.64093a.99994.99994 0 0 0 -1.40875.12671l-1.28164 1.53555a1.00009 1.00009 0 0 0 .12695 1.40857l.7674.64044a7.458 7.458 0 0 0 10.10449-.459z"/><path d="m15.2934 23.07123a1 1 0 0 0 -1.41407-.00012l-.70745.70721a3.50032 3.50032 0 0 1 -4.9502-4.9502l3.53613-3.53512a3.51972 3.51972 0 0 1 4.7124-.2168l.7674.64093a.99994.99994 0 0 0 1.40875-.12671l1.28164-1.53555a1.00009 1.00009 0 0 0 -.127-1.40857l-.7674-.64044a7.4576 7.4576 0 0 0 -10.10449.459l-3.53604 3.53514a7.50006 7.50006 0 0 0 10.60693 10.60645l.70721-.707a1 1 0 0 0 .00013-1.41431z"/><path d="m3.57471 9.13623 2.53564 1.12158a.99993.99993 0 1 0 .8086-1.8291l-2.53565-1.12158a.99993.99993 0 1 0 -.80859 1.8291z"/><path d="m8.42871 6.919a.99993.99993 0 1 0 1.8291-.8086l-1.12158-2.53569a.99993.99993 0 1 0 -1.8291.80859z"/><path d="m28.405 22.53687-2.53565-1.12159a.99993.99993 0 0 0 -.80859 1.8291l2.53561 1.12162a.99993.99993 0 0 0 .8086-1.8291z"/><path d="m23.551 24.75415a.99993.99993 0 0 0 -1.8291.80859l1.12158 2.53565a.99993.99993 0 0 0 1.82911-.8086z"/></g></svg>